<mxfile host="app.diagrams.net" modified="2023-08-08T13:08:58.482Z" agent="Mozilla/5.0 (X11; Linux x86_64) AppleWebKit/537.36 (KHTML, like Gecko) Chrome/114.0.0.0 Safari/537.36" etag="kzHaWXhpaKXXILGmVv7P" version="21.6.6" type="github">
  <diagram name="Page-1" id="usuUfPS5e59cJRi4W0HT">
    <mxGraphModel dx="1434" dy="797" grid="1" gridSize="10" guides="1" tooltips="1" connect="1" arrows="1" fold="1" page="1" pageScale="1" pageWidth="827" pageHeight="1169" math="0" shadow="0">
      <root>
        <mxCell id="0" />
        <mxCell id="1" parent="0" />
        <mxCell id="OaMXt8uYpAaF7VJLPhh--9" style="edgeStyle=orthogonalEdgeStyle;rounded=0;orthogonalLoop=1;jettySize=auto;html=1;exitX=1;exitY=0.5;exitDx=0;exitDy=0;" edge="1" parent="1" source="OaMXt8uYpAaF7VJLPhh--1" target="OaMXt8uYpAaF7VJLPhh--8">
          <mxGeometry relative="1" as="geometry" />
        </mxCell>
        <mxCell id="OaMXt8uYpAaF7VJLPhh--1" value="Esp32" style="whiteSpace=wrap;html=1;aspect=fixed;" vertex="1" parent="1">
          <mxGeometry x="242" y="370" width="80" height="80" as="geometry" />
        </mxCell>
        <mxCell id="OaMXt8uYpAaF7VJLPhh--5" style="edgeStyle=orthogonalEdgeStyle;rounded=0;orthogonalLoop=1;jettySize=auto;html=1;exitX=1;exitY=0.5;exitDx=0;exitDy=0;entryX=0;entryY=0.5;entryDx=0;entryDy=0;" edge="1" parent="1" source="OaMXt8uYpAaF7VJLPhh--2" target="OaMXt8uYpAaF7VJLPhh--1">
          <mxGeometry relative="1" as="geometry" />
        </mxCell>
        <mxCell id="OaMXt8uYpAaF7VJLPhh--2" value="Mic" style="whiteSpace=wrap;html=1;aspect=fixed;" vertex="1" parent="1">
          <mxGeometry x="122" y="270" width="80" height="80" as="geometry" />
        </mxCell>
        <mxCell id="OaMXt8uYpAaF7VJLPhh--6" style="edgeStyle=orthogonalEdgeStyle;rounded=0;orthogonalLoop=1;jettySize=auto;html=1;exitX=1;exitY=0.5;exitDx=0;exitDy=0;" edge="1" parent="1" source="OaMXt8uYpAaF7VJLPhh--3">
          <mxGeometry relative="1" as="geometry">
            <mxPoint x="242" y="410" as="targetPoint" />
          </mxGeometry>
        </mxCell>
        <mxCell id="OaMXt8uYpAaF7VJLPhh--3" value="Mic" style="whiteSpace=wrap;html=1;aspect=fixed;" vertex="1" parent="1">
          <mxGeometry x="122" y="370" width="80" height="80" as="geometry" />
        </mxCell>
        <mxCell id="OaMXt8uYpAaF7VJLPhh--7" style="edgeStyle=orthogonalEdgeStyle;rounded=0;orthogonalLoop=1;jettySize=auto;html=1;exitX=1;exitY=0.5;exitDx=0;exitDy=0;entryX=0;entryY=0.5;entryDx=0;entryDy=0;" edge="1" parent="1" source="OaMXt8uYpAaF7VJLPhh--4" target="OaMXt8uYpAaF7VJLPhh--1">
          <mxGeometry relative="1" as="geometry" />
        </mxCell>
        <mxCell id="OaMXt8uYpAaF7VJLPhh--4" value="Mic" style="whiteSpace=wrap;html=1;aspect=fixed;" vertex="1" parent="1">
          <mxGeometry x="122" y="470" width="80" height="80" as="geometry" />
        </mxCell>
        <mxCell id="OaMXt8uYpAaF7VJLPhh--11" style="edgeStyle=orthogonalEdgeStyle;rounded=0;orthogonalLoop=1;jettySize=auto;html=1;exitX=0.875;exitY=0.5;exitDx=0;exitDy=0;exitPerimeter=0;entryX=0;entryY=0.5;entryDx=0;entryDy=0;" edge="1" parent="1" source="OaMXt8uYpAaF7VJLPhh--8" target="OaMXt8uYpAaF7VJLPhh--10">
          <mxGeometry relative="1" as="geometry" />
        </mxCell>
        <mxCell id="OaMXt8uYpAaF7VJLPhh--8" value="Network" style="ellipse;shape=cloud;whiteSpace=wrap;html=1;" vertex="1" parent="1">
          <mxGeometry x="354" y="370" width="120" height="80" as="geometry" />
        </mxCell>
        <mxCell id="OaMXt8uYpAaF7VJLPhh--14" style="edgeStyle=orthogonalEdgeStyle;rounded=0;orthogonalLoop=1;jettySize=auto;html=1;exitX=1;exitY=0.5;exitDx=0;exitDy=0;entryX=0;entryY=0.5;entryDx=0;entryDy=0;" edge="1" parent="1" source="OaMXt8uYpAaF7VJLPhh--10" target="OaMXt8uYpAaF7VJLPhh--13">
          <mxGeometry relative="1" as="geometry" />
        </mxCell>
        <mxCell id="OaMXt8uYpAaF7VJLPhh--15" style="edgeStyle=orthogonalEdgeStyle;rounded=0;orthogonalLoop=1;jettySize=auto;html=1;exitX=1;exitY=0.5;exitDx=0;exitDy=0;entryX=0;entryY=0.5;entryDx=0;entryDy=0;" edge="1" parent="1" source="OaMXt8uYpAaF7VJLPhh--10" target="OaMXt8uYpAaF7VJLPhh--12">
          <mxGeometry relative="1" as="geometry" />
        </mxCell>
        <mxCell id="OaMXt8uYpAaF7VJLPhh--10" value="Server" style="whiteSpace=wrap;html=1;aspect=fixed;" vertex="1" parent="1">
          <mxGeometry x="510" y="370" width="80" height="80" as="geometry" />
        </mxCell>
        <mxCell id="OaMXt8uYpAaF7VJLPhh--12" value="Analysis graph" style="whiteSpace=wrap;html=1;aspect=fixed;" vertex="1" parent="1">
          <mxGeometry x="630" y="470" width="80" height="80" as="geometry" />
        </mxCell>
        <mxCell id="OaMXt8uYpAaF7VJLPhh--13" value="Machin learning&amp;nbsp;" style="whiteSpace=wrap;html=1;aspect=fixed;" vertex="1" parent="1">
          <mxGeometry x="630" y="270" width="80" height="80" as="geometry" />
        </mxCell>
        <mxCell id="OaMXt8uYpAaF7VJLPhh--16" value="" style="rounded=0;whiteSpace=wrap;html=1;fillColor=none;strokeColor=#b85450;dashed=1;strokeWidth=2;" vertex="1" parent="1">
          <mxGeometry x="90" y="240" width="250" height="350" as="geometry" />
        </mxCell>
        <mxCell id="OaMXt8uYpAaF7VJLPhh--17" value="" style="rounded=0;whiteSpace=wrap;html=1;fillColor=none;strokeColor=#7EA6E0;dashed=1;strokeWidth=2;" vertex="1" parent="1">
          <mxGeometry x="486" y="241" width="250" height="350" as="geometry" />
        </mxCell>
      </root>
    </mxGraphModel>
  </diagram>
</mxfile>
